# xmcd CD database file
#
# Track frame offsets:
#	150
#	21375
#	43650
#	57750
#	79950
#	102825
#	115425
#	138000
#	155325
#	175050
#	199125
#	215100
#	245250
#	265275
#
# Disc length: 3873 seconds
#
# Revision: 2
# Processed by: cddbd v1.5.1PL0 Copyright (c) Steve Scherf et al.
# Submitted via: CDex 1.60beta1
#
DISCID=c40f1f0e
DTITLE=細井聡史 - ヤジルシ、メジルシ。
DYEAR=2003
DGENRE=Vocal
TTITLE0=アオイトリ/中原涼
TTITLE1=リアル±/中原涼
TTITLE2=Peace of Personality
TTITLE3=デカロマン/YURIA
TTITLE4=好き/片霧烈火
TTITLE5=Inside Darkness
TTITLE6=月の眼の少年/片霧烈火
TTITLE7=メロディ/YURIA
TTITLE8=LINE/中原涼
TTITLE9=Balance of Mind
TTITLE10=月幻/YURIA
TTITLE11=ランピン/中原涼
TTITLE12=好き -Remix-
TTITLE13=メロディ -Remix-
EXTD=YEAR: 2003
EXTT0=
EXTT1=
EXTT2=
EXTT3=
EXTT4=
EXTT5=
EXTT6=
EXTT7=
EXTT8=
EXTT9=
EXTT10=
EXTT11=
EXTT12=
EXTT13=
PLAYORDER=
